<svg height="512pt" viewBox="0 0 512.00086 512" width="512pt" xmlns="http://www.w3.org/2000/svg"><path d="m10.253906 477.996094 74.34375-93.40625s33.902344-6.265625 81.546875-21.761719c75.648438-24.605469 89.980469 23.386719 89.980469 23.386719s14.335938-47.992188 89.984375-23.386719c47.640625 15.496094 81.546875 21.761719 81.546875 21.761719l74.339844 93.40625zm0 0" fill="#edf2fa"/><path d="m482.363281 453.328125-5.699219-6.566406s-43.589843-8.050781-104.84375-27.976563c-97.261718-31.636718-115.695312 30.070313-115.695312 30.070313s-18.429688-61.707031-115.691406-30.070313c-61.253906 19.925782-104.84375 27.976563-104.84375 27.976563l-2.136719 2.089843-23.195313 29.144532h491.738282zm0 0" fill="#ffc66c"/><path d="m167.769531 116.980469 20 40.523437 44.722657 6.5-32.359376 31.542969 7.636719 44.539063-40-21.027344-39.996093 21.027344 7.636718-44.539063-32.359375-31.542969 44.722657-6.5zm0 0" fill="#36d28f"/><path d="m282.667969 477.996094-12.5 12.5c-7.824219 7.824218-20.511719 7.824218-28.335938 0l-12.5-12.5 26.667969-26.667969zm0 0" fill="#ffc66c"/><path d="m395.964844 19.855469-11.425782 33.691406 21.277344 28.515625-35.578125-.453125-20.542969 29.046875-10.5625-33.976562-33.972656-10.558594 29.046875-20.542969-.453125-35.578125 28.515625 21.28125zm0 0" fill="#6a80ff"/><path d="m388 467.996094c-2.628906 0-5.210938 1.070312-7.070312 2.929687-1.859376 1.863281-2.929688 4.441407-2.929688 7.070313s1.066406 5.210937 2.929688 7.070312c1.859374 1.859375 4.441406 2.929688 7.070312 2.929688s5.210938-1.070313 7.066406-2.929688c1.863282-1.859375 2.933594-4.441406 2.933594-7.070312s-1.070312-5.210938-2.933594-7.070313c-1.859375-1.859375-4.4375-2.929687-7.066406-2.929687zm0 0"/><path d="m509.820312 471.769531-74.339843-93.410156c-1.5-1.882813-3.636719-3.164063-6.007813-3.601563-.332031-.066406-33.902344-6.355468-80.269531-21.4375-31.066406-10.105468-56.714844-10.042968-76.226563.191407-7.398437 3.882812-12.871093 8.738281-16.851562 13.402343-3.976562-4.664062-9.449219-9.519531-16.847656-13.402343-19.511719-10.234375-45.15625-10.296875-76.230469-.191407-46.367187 15.082032-79.9375 21.371094-80.265625 21.433594-2.375.4375-4.507812 1.722656-6.007812 3.605469l-74.339844 93.410156c-2.3945315 3.003907-2.851563 7.109375-1.1875 10.570313 1.667968 3.457031 5.167968 5.65625 9.007812 5.65625h213.25c4.28125 13.882812 17.234375 24 32.507813 24 15.277343 0 28.230469-10.117188 32.511719-24h59.144531c5.519531 0 10-4.480469 10-10 0-5.523438-4.480469-10-10-10h-60.859375l-19.652344-19.65625c2.507812-5.046875 8.648438-14.683594 21.25-21.292969 19.429688-10.1875 46.453125-9.769531 80.320312 1.246094 52.574219 17.101562 91.824219 25.464843 102.972657 27.691406l9.558593 12.011719h-52.59375c-5.519531 0-10 4.476562-10 10 0 5.519531 4.480469 10 10 10h73.332032c3.839844 0 7.339844-2.199219 9.007812-5.65625 1.667969-3.460938 1.207032-7.566406-1.183594-10.570313zm-419.6875-78.078125c10.132813-2.066406 39.878907-8.59375 79.101563-21.351562 27.265625-8.871094 49.292969-8.660156 63.710937.601562 8.402344 5.402344 12.019532 12.363282 13.183594 15.082032v30.0625c-3.671875-3.117188-7.964844-6.113282-12.992187-8.75-24.378907-12.789063-56.609375-12.804688-95.796875-.0625-31.523438 10.253906-58.457032 17.355468-76.953125 21.792968zm-49.578124 62.292969c11.148437-2.226563 50.398437-10.589844 102.972656-27.6875 33.605468-10.933594 60.484375-11.425781 79.886718-1.472656 12.824219 6.578125 19.03125 16.15625 21.609376 21.335937l-19.832032 19.835938h-194.195312zm215.457031 36.011719c-7.25 0-13.230469-5.535156-13.9375-12.597656l13.925781-13.925782 13.953125 13.953125c-.71875 7.050781-6.695313 12.570313-13.941406 12.570313zm118.902343-82.71875c-39.1875-12.746094-71.417968-12.726563-95.792968.058594-5.03125 2.636718-9.324219 5.636718-12.992188 8.75v-30.085938c1.253906-2.9375 5.582032-11.238281 16.136719-16.777344 14.355469-7.527344 35.363281-7.140625 60.753906 1.117188 39.222657 12.757812 68.96875 19.285156 79.101563 21.351562l29.75 37.382813c-18.480469-4.433594-45.398438-11.53125-76.957032-21.796875zm0 0"/><path d="m54.320312 339.003906c1.167969 4.503906 5.226563 7.496094 9.675782 7.496094.828125 0 1.671875-.105469 2.511718-.324219 5.347657-1.382812 8.558594-6.839843 7.175782-12.1875l-54-208.496093c-1.386719-5.347657-6.847656-8.558594-12.1875-7.175782-5.347656 1.386719-8.558594 6.84375-7.175782 12.1875zm0 0"/><path d="m445.492188 346.175781c.839843.21875 1.683593.324219 2.511718.324219 4.449219 0 8.507813-2.992188 9.675782-7.496094l54-208.5c1.382812-5.34375-1.828126-10.800781-7.175782-12.1875-5.347656-1.382812-10.800781 1.828125-12.1875 7.175782l-54 208.496093c-1.382812 5.347657 1.828125 10.804688 7.175782 12.1875zm0 0"/><path d="m100.636719 32.652344c5.523437 0 10-4.480469 10-10v-12.652344c0-5.519531-4.476563-10-10-10-5.519531 0-10 4.480469-10 10v12.652344c0 5.519531 4.480469 10 10 10zm0 0"/><path d="m100.636719 93.273438c5.523437 0 10-4.476563 10-10v-12.648438c0-5.523438-4.476563-10-10-10-5.519531 0-10 4.476562-10 10v12.648438c0 5.523437 4.480469 10 10 10zm0 0"/><path d="m124.625 56.636719h12.648438c5.523437 0 10-4.476563 10-10 0-5.523438-4.476563-10-10-10h-12.648438c-5.523438 0-10 4.476562-10 10 0 5.523437 4.476562 10 10 10zm0 0"/><path d="m64.003906 56.636719h12.648438c5.523437 0 10-4.476563 10-10 0-5.523438-4.476563-10-10-10h-12.648438c-5.523437 0-10 4.476562-10 10 0 5.523437 4.476563 10 10 10zm0 0"/><path d="m365.96875 219.488281c0-5.519531-4.476562-10-10-10s-10 4.480469-10 10v12.652344c0 5.519531 4.476562 9.996094 10 9.996094s10-4.476563 10-9.996094zm0 0"/><path d="m355.96875 270.113281c-5.523438 0-10 4.476563-10 9.996094v12.652344c0 5.519531 4.476562 10 10 10s10-4.480469 10-10v-12.652344c0-5.519531-4.476562-9.996094-10-9.996094zm0 0"/><path d="m379.957031 246.125c-5.523437 0-10 4.480469-10 10 0 5.523438 4.476563 10 10 10h12.648438c5.523437 0 10-4.476562 10-10 0-5.519531-4.476563-10-10-10zm0 0"/><path d="m331.984375 246.125h-12.652344c-5.519531 0-10 4.480469-10 10 0 5.523438 4.480469 10 10 10h12.652344c5.519531 0 10-4.476562 10-10 0-5.519531-4.480469-10-10-10zm0 0"/><path d="m101.613281 154.109375c-3.765625.546875-6.894531 3.183594-8.070312 6.804687-1.179688 3.621094-.195313 7.59375 2.527343 10.25l28.597657 27.875-6.753907 39.359376c-.640624 3.75.902344 7.542968 3.980469 9.777343 1.742188 1.269531 3.804688 1.910157 5.878907 1.910157 1.59375 0 3.1875-.378907 4.652343-1.148438l35.347657-18.582031 35.34375 18.582031c3.367187 1.769531 7.453124 1.476562 10.53125-.761719 3.078124-2.234375 4.621093-6.027343 3.980468-9.777343l-6.75-39.359376 28.59375-27.875c2.726563-2.65625 3.707032-6.628906 2.53125-10.25-1.175781-3.621093-4.304687-6.257812-8.074218-6.804687l-39.515626-5.742187-17.675781-35.8125c-1.683593-3.410157-5.160156-5.574219-8.964843-5.574219-3.808594 0-7.285157 2.164062-8.96875 5.574219l-17.671876 35.8125zm55.125 7.820313 11.03125-22.351563 11.035157 22.351563c1.457031 2.953124 4.269531 5 7.527343 5.472656l24.667969 3.582031-17.851562 17.402344c-2.355469 2.296875-3.429688 5.605469-2.875 8.851562l4.214843 24.570313-22.0625-11.601563c-2.914062-1.53125-6.394531-1.53125-9.308593 0l-22.066407 11.601563 4.214844-24.570313c.558594-3.246093-.519531-6.554687-2.875-8.851562l-17.851563-17.402344 24.667969-3.582031c3.257813-.472656 6.074219-2.519532 7.53125-5.472656zm0 0"/><path d="m302.191406 75.667969 28.957032 9.003906 9 28.953125c1.128906 3.636719 4.222656 6.3125 7.984374 6.910156.523438.082032 1.046876.121094 1.566407.121094 3.210937 0 6.269531-1.550781 8.160156-4.226562l17.507813-24.753907 30.320312.386719c3.78125.03125 7.308594-2.070312 9.039062-5.460938 1.726563-3.390624 1.378907-7.46875-.898437-10.519531l-18.136719-24.300781 9.738282-28.71875c1.222656-3.601562.292968-7.589844-2.398438-10.28125s-6.679688-3.621094-10.28125-2.398438l-28.714844 9.738282-24.300781-18.136719c-3.050781-2.273437-7.128906-2.621094-10.519531-.894531-3.394532 1.730468-5.507813 5.230468-5.460938 9.039062l.386719 30.320313-24.753906 17.503906c-3.109375 2.199219-4.699219 5.972656-4.105469 9.730469.597656 3.761718 3.273438 6.855468 6.910156 7.984375zm37.792969-21.925781c2.683594-1.898438 4.265625-5 4.222656-8.292969l-.195312-15.316407 12.277343 9.160157c2.636719 1.96875 6.074219 2.515625 9.191407 1.457031l14.503906-4.917969-4.917969 14.503907c-1.058594 3.117187-.511718 6.554687 1.457032 9.191406l9.160156 12.277344-15.316406-.195313c-.042969 0-.085938 0-.128907 0-3.242187 0-6.289062 1.574219-8.164062 4.226563l-8.84375 12.503906-4.546875-14.625c-.976563-3.144532-3.4375-5.605469-6.578125-6.582032l-14.628907-4.546874zm0 0"/><path d="m243 136.441406c5.523438 0 10-4.480468 10-10v-59c0-5.523437-4.476562-10-10-10-5.519531 0-10 4.476563-10 10v59c0 5.519532 4.476562 10 10 10zm0 0"/><path d="m243 40.832031c2.628906 0 5.210938-1.070312 7.070312-2.933593 1.859376-1.859376 2.929688-4.4375 2.929688-7.066407 0-2.632812-1.070312-5.210937-2.929688-7.070312-1.859374-1.859375-4.441406-2.929688-7.070312-2.929688s-5.210938 1.066407-7.070312 2.929688c-1.859376 1.859375-2.929688 4.4375-2.929688 7.070312 0 2.628907 1.070312 5.207031 2.929688 7.066407 1.859374 1.859374 4.441406 2.933593 7.070312 2.933593zm0 0"/></svg>